<?xml version="1.0" encoding="UTF-8" standalone="no"?> <!-- 235.01944 -->
<svg width="454.73965" height="454.73965" 
    xmlns="http://www.w3.org/2000/svg"
    version="1.1">
    <g transform="translate(0,117.50972)">
        <g transform="translate(11.386401,-23.896171)">
            <path d="m 168.26357,214.31608 c 79.74409,55.50891 188.01911,59.65913 257.98849,9.8888 22.61627,-16.08733 22.59953,-15.80177 1.14075,-19.46645 -61.43346,-10.49149 -102.5025,-39.84166 -130.87297,-93.52899 -3.50473,-6.63219 -8.14531,-14.165673 -10.31243,-16.741062 -2.16711,-2.575385 -5.66816,-6.846157 -7.78009,-9.490722 C 268.16224,72.123809 249.57415,55.802425 238.18012,49.63841 227.0754,43.630899 211.82816,36.378572 206.18861,34.421702 202.88267,33.274559 198.64745,31.728941 196.77702,30.986995 171.36889,20.908119 134.57098,24.827249 105.90909,40.664809 97.492638,45.31544 97.492638,45.31544 89.315346,42.895248 78.707709,39.755774 57.792264,34.7 46.52792,32.552489 41.642993,31.621201 30.259065,29.296674 21.230283,27.386881 12.201522,25.477088 4.6800656,23.906281 4.5159603,23.89619 c -0.1640869,-0.01028 -2.8447952,4.237243 -5.9570969,9.438517 -3.1123106,5.201286 -6.8152382,11.12465 -8.2287418,13.163049 -2.5700186,3.706168 -2.5700186,3.706168 2.1837889,1.311133 19.3542815,-9.750984 67.4413885,-7.398682 92.1919875,4.509785 5.706358,2.745557 5.706358,2.745557 3.00744,9.672268 -7.502158,19.254104 -8.798783,46.152258 -2.916271,60.497218 4.568155,11.13985 17.119893,31.16316 27.588763,44.01128 7.44372,9.13546 38.5548,35.75838 55.87774,47.81666 z"
                  style="fill: #008CB3" />
        </g>
    </g>
</svg>